<mxfile host="app.diagrams.net" modified="2020-09-23T17:34:27.188Z" agent="5.0 (X11)" etag="o0JKZ7tloV6EbhnKRbzg" version="13.7.5" type="github">
  <diagram id="zfj7Y4V6_zD99AEIzQsG" name="Page-1">
    <mxGraphModel dx="1102" dy="606" grid="1" gridSize="10" guides="1" tooltips="1" connect="1" arrows="1" fold="1" page="1" pageScale="1" pageWidth="850" pageHeight="1100" math="0" shadow="0">
      <root>
        <mxCell id="0" />
        <mxCell id="1" parent="0" />
        <mxCell id="0NG2o_GnQQEdI1atIlYc-13" value="Extends" style="endArrow=block;endSize=16;endFill=0;html=1;" edge="1" parent="1" source="0NG2o_GnQQEdI1atIlYc-9" target="0NG2o_GnQQEdI1atIlYc-1">
          <mxGeometry y="-10" width="160" relative="1" as="geometry">
            <mxPoint x="340" y="18" as="sourcePoint" />
            <mxPoint x="180" y="18" as="targetPoint" />
            <Array as="points">
              <mxPoint x="270" y="61" />
            </Array>
            <mxPoint as="offset" />
          </mxGeometry>
        </mxCell>
        <mxCell id="0NG2o_GnQQEdI1atIlYc-9" value="ConcreteGreeter1" style="swimlane;fontStyle=1;align=center;verticalAlign=top;childLayout=stackLayout;horizontal=1;startSize=26;horizontalStack=0;resizeParent=1;resizeParentMax=0;resizeLast=0;collapsible=1;marginBottom=0;" vertex="1" parent="1">
          <mxGeometry x="320" y="18" width="160" height="86" as="geometry" />
        </mxCell>
        <mxCell id="0NG2o_GnQQEdI1atIlYc-10" value="+ field: type" style="text;strokeColor=none;fillColor=none;align=left;verticalAlign=top;spacingLeft=4;spacingRight=4;overflow=hidden;rotatable=0;points=[[0,0.5],[1,0.5]];portConstraint=eastwest;" vertex="1" parent="0NG2o_GnQQEdI1atIlYc-9">
          <mxGeometry y="26" width="160" height="26" as="geometry" />
        </mxCell>
        <mxCell id="0NG2o_GnQQEdI1atIlYc-11" value="" style="line;strokeWidth=1;fillColor=none;align=left;verticalAlign=middle;spacingTop=-1;spacingLeft=3;spacingRight=3;rotatable=0;labelPosition=right;points=[];portConstraint=eastwest;" vertex="1" parent="0NG2o_GnQQEdI1atIlYc-9">
          <mxGeometry y="52" width="160" height="8" as="geometry" />
        </mxCell>
        <mxCell id="0NG2o_GnQQEdI1atIlYc-12" value="+ method(type): type" style="text;strokeColor=none;fillColor=none;align=left;verticalAlign=top;spacingLeft=4;spacingRight=4;overflow=hidden;rotatable=0;points=[[0,0.5],[1,0.5]];portConstraint=eastwest;" vertex="1" parent="0NG2o_GnQQEdI1atIlYc-9">
          <mxGeometry y="60" width="160" height="26" as="geometry" />
        </mxCell>
        <mxCell id="0NG2o_GnQQEdI1atIlYc-1" value="IGreeter" style="swimlane;fontStyle=1;align=center;verticalAlign=top;childLayout=stackLayout;horizontal=1;startSize=30;horizontalStack=0;resizeParent=1;resizeParentMax=0;resizeLast=0;collapsible=1;marginBottom=0;" vertex="1" parent="1">
          <mxGeometry x="20" y="29" width="190" height="64" as="geometry" />
        </mxCell>
        <mxCell id="0NG2o_GnQQEdI1atIlYc-3" value="" style="line;strokeWidth=1;fillColor=none;align=left;verticalAlign=middle;spacingTop=-1;spacingLeft=3;spacingRight=3;rotatable=0;labelPosition=right;points=[];portConstraint=eastwest;" vertex="1" parent="0NG2o_GnQQEdI1atIlYc-1">
          <mxGeometry y="30" width="190" height="8" as="geometry" />
        </mxCell>
        <mxCell id="0NG2o_GnQQEdI1atIlYc-4" value="+ canGreetToday(): bool" style="text;strokeColor=none;fillColor=none;align=left;verticalAlign=top;spacingLeft=4;spacingRight=4;overflow=hidden;rotatable=0;points=[[0,0.5],[1,0.5]];portConstraint=eastwest;" vertex="1" parent="0NG2o_GnQQEdI1atIlYc-1">
          <mxGeometry y="38" width="190" height="26" as="geometry" />
        </mxCell>
        <mxCell id="0NG2o_GnQQEdI1atIlYc-5" value="HolidayProvider" style="swimlane;fontStyle=1;align=center;verticalAlign=top;childLayout=stackLayout;horizontal=1;startSize=26;horizontalStack=0;resizeParent=1;resizeParentMax=0;resizeLast=0;collapsible=1;marginBottom=0;" vertex="1" parent="1">
          <mxGeometry x="190" y="150" width="210" height="86" as="geometry" />
        </mxCell>
        <mxCell id="0NG2o_GnQQEdI1atIlYc-6" value="+ greeters: IGreeter[]" style="text;strokeColor=none;fillColor=none;align=left;verticalAlign=top;spacingLeft=4;spacingRight=4;overflow=hidden;rotatable=0;points=[[0,0.5],[1,0.5]];portConstraint=eastwest;" vertex="1" parent="0NG2o_GnQQEdI1atIlYc-5">
          <mxGeometry y="26" width="210" height="26" as="geometry" />
        </mxCell>
        <mxCell id="0NG2o_GnQQEdI1atIlYc-7" value="" style="line;strokeWidth=1;fillColor=none;align=left;verticalAlign=middle;spacingTop=-1;spacingLeft=3;spacingRight=3;rotatable=0;labelPosition=right;points=[];portConstraint=eastwest;" vertex="1" parent="0NG2o_GnQQEdI1atIlYc-5">
          <mxGeometry y="52" width="210" height="8" as="geometry" />
        </mxCell>
        <mxCell id="0NG2o_GnQQEdI1atIlYc-8" value="+ method(type): type" style="text;strokeColor=none;fillColor=none;align=left;verticalAlign=top;spacingLeft=4;spacingRight=4;overflow=hidden;rotatable=0;points=[[0,0.5],[1,0.5]];portConstraint=eastwest;" vertex="1" parent="0NG2o_GnQQEdI1atIlYc-5">
          <mxGeometry y="60" width="210" height="26" as="geometry" />
        </mxCell>
        <mxCell id="0NG2o_GnQQEdI1atIlYc-15" value="IHolidayProvider" style="swimlane;fontStyle=1;align=center;verticalAlign=top;childLayout=stackLayout;horizontal=1;startSize=26;horizontalStack=0;resizeParent=1;resizeParentMax=0;resizeLast=0;collapsible=1;marginBottom=0;" vertex="1" parent="1">
          <mxGeometry x="470" y="120" width="160" height="60" as="geometry" />
        </mxCell>
        <mxCell id="0NG2o_GnQQEdI1atIlYc-17" value="" style="line;strokeWidth=1;fillColor=none;align=left;verticalAlign=middle;spacingTop=-1;spacingLeft=3;spacingRight=3;rotatable=0;labelPosition=right;points=[];portConstraint=eastwest;" vertex="1" parent="0NG2o_GnQQEdI1atIlYc-15">
          <mxGeometry y="26" width="160" height="8" as="geometry" />
        </mxCell>
        <mxCell id="0NG2o_GnQQEdI1atIlYc-18" value="+ method(type): type" style="text;strokeColor=none;fillColor=none;align=left;verticalAlign=top;spacingLeft=4;spacingRight=4;overflow=hidden;rotatable=0;points=[[0,0.5],[1,0.5]];portConstraint=eastwest;" vertex="1" parent="0NG2o_GnQQEdI1atIlYc-15">
          <mxGeometry y="34" width="160" height="26" as="geometry" />
        </mxCell>
      </root>
    </mxGraphModel>
  </diagram>
</mxfile>
